<?xml version="1.0" standalone="no"?>
<!DOCTYPE svg PUBLIC "-//W3C//DTD SVG 20010904//EN"
 "http://www.w3.org/TR/2001/REC-SVG-20010904/DTD/svg10.dtd">
<svg version="1.0" xmlns="http://www.w3.org/2000/svg"
 width="45.000000" height="45.000000" viewBox="0 0 500.000000 500.000000"
 preserveAspectRatio="xMidYMid meet">

<g transform="translate(0.000000,500.000000) scale(0.100000,-0.100000)"
fill="#000000" stroke="none">
<path d="M0 2500 l0 -2500 2500 0 2500 0 0 2500 0 2500 -2500 0 -2500 0 0
-2500z m2071 1372 c17 -19 29 -44 29 -60 0 -15 -18 -250 -40 -522 -110 -1378
-111 -1491 -23 -1609 39 -51 81 -64 193 -59 160 6 239 60 292 200 50 132 58
226 113 1315 20 381 39 703 44 716 20 52 22 52 348 52 l305 0 29 -33 c35 -39
34 -6 14 -507 -9 -203 -20 -566 -25 -805 -12 -535 -31 -711 -105 -934 -164
-503 -541 -756 -1125 -756 -239 0 -436 40 -558 113 -83 49 -175 153 -221 249
-90 187 -115 353 -114 763 1 350 10 482 93 1275 66 623 64 618 126 632 16 3
157 5 312 5 l284 -2 29 -33z m1975 -2228 c120 -35 225 -136 260 -249 18 -62
18 -177 -1 -239 -28 -92 -116 -200 -199 -243 -120 -62 -272 -56 -385 16 -131
85 -198 217 -189 375 6 112 33 170 115 246 63 60 93 74 93 45 0 -8 5 -15 10
-15 6 0 10 13 10 29 0 25 5 30 38 39 58 16 188 14 248 -4z"/>
<path d="M3233 3783 c-6 -16 -8 -70 -5 -120 4 -80 7 -93 22 -93 14 0 20 14 29
75 6 42 11 96 11 120 0 41 -2 45 -24 45 -17 0 -27 -8 -33 -27z"/>
<path d="M1433 3722 c-8 -5 -9 -13 -3 -22 14 -22 12 -62 -5 -111 -9 -23 -17
-72 -19 -108 -2 -36 -5 -70 -7 -76 -1 -5 3 -30 10 -55 10 -33 10 -53 3 -75
-13 -37 -19 -191 -8 -202 9 -9 36 24 36 44 0 7 -8 13 -17 13 -14 0 -14 3 4 23
18 19 21 40 27 182 3 88 9 213 13 278 6 120 3 132 -34 109z"/>
<path d="M1377 2733 c-9 -9 12 -33 29 -33 8 0 14 9 14 20 0 19 -28 28 -43 13z"/>
<path d="M1380 2552 c-23 -19 -23 -21 -7 -28 22 -8 40 8 35 31 -3 16 -5 16
-28 -3z"/>
<path d="M2908 2273 c7 -3 16 -2 19 1 4 3 -2 6 -13 5 -11 0 -14 -3 -6 -6z"/>
<path d="M2508 1613 c7 -3 16 -2 19 1 4 3 -2 6 -13 5 -11 0 -14 -3 -6 -6z"/>
<path d="M2160 1562 c0 -16 25 -32 50 -32 25 0 50 16 50 32 0 4 -22 8 -50 8
-27 0 -50 -4 -50 -8z"/>
<path d="M2381 1474 c0 -11 3 -14 6 -6 3 7 2 16 -1 19 -3 4 -6 -2 -5 -13z"/>
<path d="M2084 1456 c-8 -22 -1 -28 26 -24 l22 3 -21 19 c-19 17 -21 17 -27 2z"/>
<path d="M3806 1515 c-6 -18 2 -45 15 -45 12 0 12 47 0 54 -5 3 -11 -1 -15 -9z"/>
<path d="M4157 1213 c-14 -13 -6 -24 15 -21 27 4 36 28 11 28 -11 0 -23 -3
-26 -7z"/>
<path d="M3686 1144 c-4 -9 -4 -19 -2 -22 10 -9 36 8 36 23 0 20 -26 19 -34
-1z"/>
<path d="M4136 1151 c-7 -10 3 -41 13 -41 17 1 33 20 28 34 -7 17 -32 22 -41
7z"/>
<path d="M3920 1001 c0 -5 9 -11 20 -14 13 -3 20 0 20 9 0 8 -9 14 -20 14 -11
0 -20 -4 -20 -9z"/>
</g>
</svg>
